<svg height="512pt" viewBox="-39 0 512 512.0012" width="512pt" xmlns="http://www.w3.org/2000/svg"><path d="m10.851562 69.585938c4.144532 2.550781 9.097657 3.039062 14.671876 3.378906 31.246093 1.9375 63.230468 2.917968 95.066406 2.917968 33.914062 0 68.320312-1.113281 102.265625-3.308593 3.703125-.238281 8.3125-.535157 12.109375-2.492188 4.082031-2.128906 6.59375-6.21875 6.105468-9.960937-.386718-2.945313-2.660156-5.804688-5.949218-7.46875-2.796875-1.398438-6.046875-1.925782-9-2.355469l-.363282-.140625h-.03125l-1.046874-4.09375c-2.707032-10.546875-8.96875-19.910156-17.640626-26.359375-12.84375-9.550781-29.355468-10.96875-45.351562-12.335937l-1.726562-.152344c-13.042969-1.117188-26.957032-2.207032-41.046876-2.207032-9.230468 0-17.640624.460938-25.707031 1.414063-12.671875 1.496094-25.292969 3.996094-37.507812 7.417969-9.914063 2.765625-21.863281 7.273437-26.335938 17.671875-.628906 1.492187-1.101562 3.082031-1.617187 4.867187-.542969 1.894532-1.097656 3.738282-1.902344 5.4375l-2.015625 4.25-1.144531.023438-1.207032.800781c-1.953124 1.296875-4.328124 2.222656-6.246093 2.972656-4.039063 1.589844-7.855469 3.089844-9.53125 6.800781-1.914063 4.214844.402343 10.011719 5.152343 12.921876zm0 0" fill="#b2eaf9"/><path d="m234.960938 105c-3.789063-1.964844-8.398438-2.265625-12.105469-2.503906-33.984375-2.1875-68.390625-3.296875-102.261719-3.296875-31.789062 0-63.773438.976562-95.074219 2.90625-5.792969.367187-10.550781.847656-14.65625 3.378906-4.765625 2.914063-7.082031 8.71875-5.164062 12.929687 1.683593 3.707032 5.496093 5.207032 9.550781 6.804688 1.292969.503906 2.792969 1.097656 4.175781 1.789062l1.058594.53125h1.179687c.117188 0 .230469-.003906.347657-.011718.167969-.003906.335937-.003906.5-.003906l2.675781 4.492187c1.21875 2.050781 1.902344 4.414063 2.5625 6.707031.472656 1.617188.957031 3.289063 1.628906 4.867188 4.445313 10.355468 16.398438 14.875 26.316406 17.652344 12.179688 3.414062 24.800782 5.910156 37.511719 7.410156 8.085938.957031 16.5 1.421875 25.722657 1.421875 14.179687 0 28.617187-1.144531 41.039062-2.214844l1.710938-.148437c15.980468-1.359376 32.5-2.765626 45.359374-12.332032 8.984376-6.6875 15.335938-16.417968 17.886719-27.398437l.730469-3.140625.160156-.019532c3.457032-.492187 6.550782-1.007812 9.328125-2.410156 3.273438-1.65625 5.542969-4.515625 5.929688-7.464844.488281-3.746093-2.03125-7.835937-6.113281-9.945312zm0 0" fill="#b2eaf9"/><path d="m426.519531 402.550781c-3.453125-22.230469-7.207031-43.933593-15.097656-65.035156-3.472656-9.28125-7.53125-18.40625-12.101563-27.21875h.191407l-4.210938-7.457031c-5.0625-8.964844-12.292969-19.496094-23.433593-21.359375-1.695313-.273438-3.496094-.351563-5.105469-.417969-1.972657-.078125-3.890625-.175781-5.734375-.554688l-4.605469-.941406-.300781-1.113281-1.0625-.984375c-1.679688-1.546875-3.113282-3.570312-4.375-5.351562-2.488282-3.535157-4.84375-6.875-8.808594-7.632813-.488281-.097656-.980469-.148437-1.457031-.148437-4.160157 0-8.429688 3.53125-9.933594 8.21875-1.476563 4.617187-.777344 9.546874.210937 15.050781 11.519532 63.910156 27.429688 128.367187 47.289063 191.566406 1.109375 3.546875 2.492187 7.957031 5.308594 11.1875 2.207031 2.511719 5.390625 4.074219 8.308593 4.074219.988282 0 1.933594-.171875 2.792969-.507813 2.777344-1.070312 5.019531-3.957031 5.859375-7.566406.722656-3.175781.410156-6.605469.109375-9.660156l3.8125-2.042969c9.601563-5.136719 17.199219-13.445312 21.410157-23.402344 6.234374-14.765625 3.671874-31.15625 1.195312-46.992187zm0 0" fill="#cbe580"/><path d="m302.390625 294.53125c-1.664063-5.339844-3.320313-10.039062-6.773437-13.453125-2.304688-2.273437-5.507813-3.628906-8.5625-3.628906-2 0-3.804688.589843-5.210938 1.703125-3.226562 2.539062-3.792969 6.78125-4.34375 10.886718-.191406 1.453126-.410156 3-.75 4.496094l-.257812 1.148438.277343 1.140625c.039063.160156.082031.316406.136719.46875.027344.113281.058594.230469.085938.339843l-3.738282 3.6875c-1.65625 1.632813-3.785156 2.867188-5.886718 4.085938-1.480469.84375-3.011719 1.71875-4.347657 2.738281-9.015625 6.785157-10.554687 19.464844-10.890625 29.75-.421875 12.707031.15625 25.558594 1.714844 38.195313 2.742188 22.347656 9.433594 43.335937 16.632812 64.640625l.59375 1.773437c5.121094 15.152344 10.414063 30.820313 22.730469 41 8.46875 7.011719 19.234375 10.871094 30.304688 10.871094l3.777343-.042969.066407.171875c1.125 2.785156 2.394531 5.941406 4.542969 8.453125 2.160156 2.53125 5.085937 4.042969 7.832031 4.042969.292969 0 .582031-.015625.804687-.042969 3.765625-.394531 7.15625-3.808593 8.25-8.3125 1-4.167969.191406-8.707031-.460937-12.34375-11.578125-65.265625-27.234375-129.785156-46.527344-191.769531zm0 0" fill="#cbe580"/><g fill="#fff"><path d="m348.453125 483.722656.59375 3.308594 3.289063.699219c1.613281.34375 3.289062.519531 4.980468.519531 6.714844 0 13.347656-2.78125 17.804688-7.457031.101562-.082031.195312-.164063.289062-.25l2.332032-2.144531-.941407-3.023438c-19.253906-61.816406-34.730469-124.785156-45.996093-187.164062l-.617188-3.421876-3.417969-.613281c-1.554687-.277343-3.152343-.417969-4.753906-.417969-6.492187 0-12.796875 2.25-17.761719 6.34375l-2.589844 2.136719.996094 3.203125c18.898438 60.808594 34.304688 124.15625 45.792969 188.28125zm0 0"/><path d="m59.027344 239.386719-3.46875-.210938-1.40625 3.175781c-3.246094 7.320313-3.097656 16.019532.394531 23.269532l1.460937 3.023437 3.351563-.207031c30.902344-1.890625 62.546875-2.851562 94.046875-2.851562 33.066406 0 66.625 1.058593 99.734375 3.140624l3.363281.210938 1.457032-3.039062c3.632812-7.570313 3.089843-16.90625-1.34375-23.800782-.066407-.132812-.132813-.261718-.207032-.386718l-1.542968-2.695313-3.101563.191406c-32.894531 2.03125-65.960937 3.058594-98.285156 3.058594-31.519531.003906-63.296875-.964844-94.453125-2.878906zm0 0"/><path d="m237.296875 433.113281 1.460937-3.03125c3.632813-7.53125 3.109376-16.832031-1.324218-23.773437-.046875-.101563-.097656-.195313-.148438-.292969l-1.511718-2.832031-3.207032.199218c-32.726562 2.027344-65.796875 3.058594-98.28125 3.058594-31.6875 0-63.46875-.96875-94.453125-2.882812l-3.472656-.210938-1.410156 3.179688c-3.234375 7.316406-3.089844 16.015625.398437 23.269531l1.457032 3.03125 3.355468-.207031c30.957032-1.894532 62.640625-2.855469 94.167969-2.855469 33.042969 0 66.558594 1.054687 99.613281 3.136719zm0 0"/><path d="m23.117188 102.261719 3.351562-.203125c30.917969-1.894532 62.578125-2.851563 94.101562-2.851563 33.039063 0 66.574219 1.050781 99.671876 3.128907l3.355468.210937 1.460938-3.027344c3.640625-7.546875 3.113281-16.863281-1.320313-23.789062-.046875-.09375-.09375-.1875-.144531-.28125l-1.511719-2.832031-3.207031.199218c-32.726562 2.03125-65.792969 3.058594-98.28125 3.058594-31.632812 0-63.410156-.964844-94.453125-2.871094l-3.46875-.210937-1.410156 3.175781c-3.246094 7.324219-3.097657 16.023438.398437 23.269531zm0 0"/></g><path d="m43.738281 235.976562c4.128907 2.542969 9.089844 3.03125 14.675781 3.371094 31.246094 1.9375 63.230469 2.917969 95.074219 2.917969 33.914063 0 68.320313-1.113281 102.257813-3.308594 3.703125-.238281 8.308594-.535156 12.101562-2.484375 4.089844-2.113281 6.605469-6.207031 6.113282-9.96875-.386719-2.960937-2.667969-5.816406-5.925782-7.445312-2.914062-1.476563-6.328125-1.988282-9.394531-2.433594l-1.070313-4.179688c-2.707031-10.550781-8.972656-19.910156-17.640624-26.359374-12.84375-9.550782-29.359376-10.96875-45.378907-12.339844l-1.695312-.140625c-13.019531-1.121094-26.90625-2.21875-41.046875-2.21875-9.21875 0-17.628906.464843-25.710938 1.425781-12.714844 1.503906-25.335937 3.996094-37.515625 7.410156-9.921875 2.785156-21.875 7.308594-26.296875 17.636719-.6875 1.582031-1.175781 3.261719-1.648437 4.902344-.570313 1.988281-1.105469 3.765625-1.894531 5.421875l-2.042969 4.273437-1.125.027344-1.203125.796875c-1.898438 1.257812-4.113282 2.132812-6.238282 2.972656-3.851562 1.503906-7.835937 3.058594-9.542968 6.792969-1.910156 4.203125.398437 10.003906 5.148437 12.929687zm0 0" fill="#f9d889"/><path d="m88.585938 327.625c12.195312 3.414062 24.816406 5.910156 37.5 7.410156 1.621093.195313 3.246093.359375 4.863281.511719l.25.023437 1.519531-.003906c7.03125 0 14.414062.269532 23.238281.839844l.203125.015625.203125-.003906c11.476563-.183594 22.886719-1 36.464844-2.175781l1.773437-.144532c15.972657-1.367187 32.484376-2.785156 45.328126-12.335937 8.992187-6.695313 15.347656-16.425781 17.886718-27.394531l.722656-3.132813.195313-.027344c2.980469-.433593 6.363281-.925781 9.296875-2.40625 3.269531-1.652343 5.542969-4.511719 5.933594-7.46875.484375-3.75-2.027344-7.84375-6.125-9.960937-3.785156-1.945313-8.390625-2.242188-12.089844-2.480469-33.941406-2.199219-68.351562-3.3125-102.265625-3.3125-31.84375 0-63.828125.984375-95.066406 2.921875-5.585938.339844-10.546875.828125-14.679688 3.371094-4.75 2.925781-7.058593 8.726562-5.144531 12.9375 1.703125 3.726562 5.6875 5.28125 9.570312 6.800781 1.386719.550781 2.820313 1.117187 4.152344 1.78125l1.054688.527344h1.179687c.121094 0 .238281-.003907.347657-.007813.164062-.003906.324218-.003906.488281-.003906l2.695312 4.507812c1.21875 2.042969 1.929688 4.507813 2.558594 6.691407.472656 1.625.960937 3.304687 1.636719 4.867187 4.445312 10.351563 16.390625 14.871094 26.308594 17.652344zm0 0" fill="#f9d889"/><path d="m24.546875 400.152344c4.128906 2.535156 8.882813 3.011718 14.675781 3.378906 31.238282 1.929688 63.21875 2.90625 95.054688 2.90625 33.917968 0 68.328125-1.109375 102.269531-3.296875 3.710937-.238281 8.328125-.539063 12.105469-2.496094 4.105468-2.121093 6.621094-6.226562 6.117187-9.914062-.367187-2.972657-2.644531-5.847657-5.933593-7.5-2.816407-1.425781-6.0625-1.949219-8.996094-2.367188l-.351563-.144531h-.058593l-1.050782-4.101562c-2.707031-10.542969-8.976562-19.90625-17.648437-26.359376-12.863281-9.566406-29.382813-10.96875-45.351563-12.328124l-1.730468-.152344c-5.484376-.464844-11.375-.953125-17.269532-1.347656l-.203125-.011719-.203125.003906c-1.386718.019531-2.78125.039063-4.167968.039063-7.171876 0-13.808594-.28125-20.296876-.859376l-.234374-.023437-.234376.003906c-8.609374.042969-16.507812.5-24.140624 1.402344-12.632813 1.492187-25.25 3.988281-37.515626 7.410156-9.914062 2.78125-21.863281 7.304688-26.296874 17.640625-.65625 1.515625-1.128907 3.140625-1.585938 4.71875l-.046875.15625c-.507813 1.742188-1.082031 3.710938-1.914063 5.460938l-2.027343 4.257812-1.121094.027344-1.203125.792969c-1.832031 1.207031-3.914062 2.0625-6.269531 2.980469-4.023438 1.589843-7.824219 3.089843-9.527344 6.792968-2.144531 4.710938 1.007813 10.378906 5.15625 12.929688zm0 0" fill="#ed6d66"/><path d="m132.578125 500.636719c14.121094 0 28.03125-1.09375 41.082031-2.214844l1.804688-.15625c15.945312-1.367187 32.4375-2.78125 45.261718-12.332031 8.988282-6.679688 15.34375-16.40625 17.898438-27.390625l.730469-3.136719.160156-.023438c2.816406-.398437 6.316406-.898437 9.304687-2.40625 3.300782-1.65625 5.582032-4.535156 5.9375-7.4375.511719-3.742187-1.996093-7.847656-6.109374-9.992187-3.777344-1.949219-8.394532-2.246094-12.101563-2.484375-33.898437-2.191406-68.289063-3.304688-102.203125-3.304688-31.839844 0-63.84375.980469-95.117188 2.914063-5.574218.339844-10.527343.828125-14.679687 3.378906-4.148437 2.546875-7.296875 8.210938-5.152344 12.929688 1.691407 3.703125 5.496094 5.203125 9.542969 6.800781 1.296875.503906 2.796875 1.101562 4.179688 1.792969l1.585937.773437 1.28125-.269531c.070313 0 .140625 0 .210937-.003906l2.683594 4.503906c1.234375 2.074219 1.945313 4.527344 2.582032 6.722656.46875 1.621094.949218 3.296875 1.621093 4.855469 4.449219 10.363281 16.394531 14.871094 26.304688 17.640625 12.234375 3.425781 24.855469 5.921875 37.511719 7.417969 8.070312.957031 16.46875 1.421875 25.679687 1.421875zm0 0" fill="#ed6d66"/><path d="m431.722656 403.480469-.265625-1.691407c-3.492187-22.492187-7.296875-44.460937-15.355469-66.015624-4.5625-12.203126-10.09375-24.105469-16.445312-35.378907h-.003906c-5.597656-9.9375-13.722656-21.628906-26.925782-23.835937-1.980468-.328125-3.890624-.410156-5.738281-.484375-2.882812-.121094-5.375-.226563-7.160156-1.226563-1.8125-1.019531-3.390625-3.25-5.054687-5.613281-2.683594-3.804687-6.023438-8.539063-12.023438-9.671875-7.878906-1.496094-14.835938 4.65625-17.023438 11.460938-.847656 2.636718-1.125 5.285156-1.097656 7.847656-7.261718-.574219-14.691406 1.34375-20.78125 5.335937-1.175781-2.367187-2.679687-4.667969-4.710937-6.675781-5.078125-5.027344-14.09375-7.265625-20.394531-2.304688-.199219.15625-.382813.320313-.566407.484376-1.476562-3.914063-4.667969-7.035157-8.027343-8.773438-2.066407-1.070312-4.21875-1.71875-6.339844-2.152344 2.359375-6.980468 2.046875-14.777344-.929688-21.539062 2.417969-.421875 4.902344-1.113282 7.269532-2.339844 5.007812-2.589844 9.664062-8.246094 8.777343-15.042969-.609375-4.644531-3.84375-8.863281-8.652343-11.28125-2.503907-1.261719-5.109376-1.929687-7.605469-2.382812-2.816407-11.949219-9.878907-22.78125-19.753907-30.125-13.996093-10.410157-32.019531-11.949219-47.921874-13.308594l-1.710938-.144531c-.824219-.070313-1.644531-.140625-2.46875-.210938 6.804688-1.886718 13.359375-4.675781 19.210938-9.023437 9.875-7.34375 16.9375-18.175781 19.753906-30.128907 2.496094-.449218 5.101562-1.117187 7.605468-2.378906 4.8125-2.421875 8.042969-6.636718 8.652344-11.28125.890625-6.796875-3.769531-12.453125-8.777344-15.046875-2.0625-1.066406-4.21875-1.71875-6.339843-2.148437 2.363281-6.980469 2.050781-14.78125-.929688-21.539063 2.417969-.421875 4.90625-1.117187 7.269531-2.339843 5.011719-2.59375 9.667969-8.25 8.777344-15.046876-.609375-4.644531-3.84375-8.859374-8.652344-11.28125-2.503906-1.261718-5.109374-1.929687-7.605468-2.378906-2.816406-11.953125-9.878906-22.785156-19.753906-30.128906-13.996094-10.40625-32.019532-11.945312-47.917969-13.304688l-1.714844-.148437c-22.675781-1.949219-44.921875-3.480469-67.777344-.777344-12.941406 1.53125-25.820312 4.078125-38.269531 7.566407-10.984375 3.078124-24.273438 8.1875-29.554688 20.488281-.792968 1.847656-1.324218 3.683593-1.839843 5.460937-.800781 2.773438-1.492188 5.164063-2.890625 6.664063-1.417969 1.519531-3.960938 2.519531-6.652344 3.574219-4.332031 1.703124-9.726562 3.820312-12.253906 9.378906-3.320313 7.292968.996094 15.519531 7.085937 19.257812 2.359375 1.449219 4.867188 2.351563 7.363281 2.933594-2.289062 6.914062-2.1875 14.589844.242188 21.453125-2.578125.582031-5.171875 1.492187-7.605469 2.988281-6.089843 3.742188-10.40625 11.96875-7.085937 19.261719 2.527344 5.558594 7.921875 7.675781 12.253906 9.378906 2.691406 1.054688 5.234375 2.054688 6.652344 3.578125 1.398437 1.496094 2.089844 3.890625 2.890625 6.660156.515625 1.777344 1.046875 3.617188 1.839843 5.460938 5.28125 12.300781 18.566407 17.414062 29.554688 20.488281 12.449219 3.488281 25.328125 6.035157 38.269531 7.566407.332031.039062.660157.070312.992188.109374-2.132813.535157-4.261719 1.089844-6.371094 1.683594-10.984375 3.074219-24.273437 8.1875-29.554687 20.488282-.792969 1.84375-1.324219 3.683593-1.835938 5.460937-.804688 2.769531-1.496094 5.164063-2.894531 6.660156-1.417969 1.523438-3.960938 2.519531-6.652344 3.578125-4.332031 1.699219-9.726563 3.820313-12.253906 9.378906-3.320313 7.292969.996093 15.519532 7.085937 19.257813 2.355469 1.449219 4.863282 2.351563 7.359375 2.933594-2.285156 6.914062-2.183593 14.589843.242188 21.453125-2.574219.582031-5.167969 1.492187-7.601563 2.988281-6.089844 3.742187-10.40625 11.96875-7.085937 19.261719 2.527343 5.558594 7.921875 7.675781 12.253906 9.378906 2.691406 1.054688 5.234375 2.054688 6.652344 3.574219 1.398437 1.496093 2.089843 3.890625 2.894531 6.664062.511719 1.777344 1.042969 3.613281 1.835938 5.457031 5.28125 12.304688 18.566406 17.414063 29.554687 20.492188 1.90625.53125 3.828125 1.039062 5.753906 1.527344-8.433593 1.457031-16.785156 3.332031-24.953125 5.621094-10.984375 3.078124-24.273437 8.1875-29.554687 20.488281-.789063 1.84375-1.324219 3.683593-1.835938 5.460937-.800781 2.769532-1.496093 5.164063-2.894531 6.660156-1.417969 1.523438-3.960938 2.519532-6.652344 3.578126-4.332031 1.703124-9.726562 3.820312-12.253906 9.378906-3.320312 7.292968.996094 15.519531 7.085938 19.257812 2.359374 1.449219 4.867187 2.351563 7.363281 2.933594-2.285157 6.914062-2.1875 14.589844.238281 21.453125-2.574219.582031-5.167969 1.492187-7.601562 2.988281-6.089844 3.742188-10.40625 11.96875-7.085938 19.261719 2.527344 5.558594 7.921875 7.675781 12.253906 9.378906 2.691406 1.054688 5.234375 2.054688 6.652344 3.574219 1.398438 1.5 2.089844 3.894531 2.894531 6.664062.511719 1.777344 1.042969 3.613282 1.835938 5.457032 5.28125 12.304687 18.566406 17.414062 29.554687 20.492187 12.453125 3.488281 25.328125 6.035157 38.273438 7.566407 8.839844 1.046874 17.582031 1.457031 26.300781 1.457031 13.820313 0 27.566406-1.039063 41.472656-2.234375l1.710938-.148438c15.902343-1.355468 33.925781-2.894531 47.921875-13.304687 9.875-7.34375 16.9375-18.175781 19.753906-30.128907 2.496094-.449218 5.101562-1.117187 7.605469-2.378906 4.808593-2.421875 8.042969-6.636718 8.652343-11.28125.886719-6.796875-3.769531-12.453125-8.777343-15.046875-2.0625-1.066406-4.21875-1.71875-6.339844-2.148437 2.359375-6.980469 2.046875-14.78125-.929687-21.539063 2.417968-.421875 4.902343-1.117187 7.269531-2.339843 1-.519532 1.984375-1.164063 2.917969-1.910157 3.265624 13.222657 7.472656 26.140625 11.878906 39.171875l.546875 1.628906c5.101562 15.121094 10.878906 32.261719 24.320312 43.382813 9.367188 7.75 21.390625 12.027344 33.519531 12.027344h.4375c1.03125 2.3125 2.296876 4.683593 4.121094 6.820312 3.152344 3.691407 7.417969 5.792969 11.640625 5.792969.457031 0 .917969-.023438 1.375-.074219 6.8125-.75 11.199219-6.617187 12.527344-12.101562.546875-2.257813.667969-4.503907.582031-6.664063.839844.074219 1.683594.117188 2.527344.117188 6.511719 0 12.992188-2.152344 18.175781-6.136719.984375 2.246094 2.25 4.492187 3.996094 6.496094 2.808594 3.214843 7.273437 5.820312 12.050781 5.820312 1.53125 0 3.101563-.269531 4.652344-.871093 4.367188-1.695313 7.695312-5.839844 8.902344-11.085938.628906-2.734375.65625-5.425781.503906-7.953125 10.9375-5.574219 19.777344-15.011719 24.566406-26.351563 6.785156-16.070312 3.992188-33.945312 1.53125-49.714843zm-161.449218-110.214844c.648437-.324219 1.265624-.6875 1.851562-1.074219-.304688 1.757813-.71875 3.332032-1.46875 4.480469-1.121094 1.710937-3.28125 2.953125-5.785156 4.390625-1.601563.921875-3.261719 1.875-4.863282 3.085938-.074218.054687-.136718.117187-.207031.171874 1.203125-2.800781 2.167969-5.703124 2.867188-8.675781 2.492187-.449219 5.097656-1.117187 7.605469-2.378906zm-213.234376-274.613281c11.957032-3.347656 24.320313-5.792969 36.75-7.265625 8.394532-.992188 16.753907-1.382813 25.121094-1.382813 13.476563 0 26.964844 1.019532 40.621094 2.195313l1.722656.148437c15.28125 1.304688 31.085938 2.652344 42.800782 11.367188 5.109374 3.800781 10.648437 9.546875 12.882812 15.652344.605469 1.65625 1.035156 3.398437 1.492188 5.132812-64.53125-6.097656-130.238282-4.839844-187.289063-2.488281 1.253906-2.742188 1.621094-5.722657 2.835937-8.550781 3.609376-8.410157 14.21875-12.332032 23.0625-14.808594zm-43.566406 46.675781c-2.546875-1.5625-4.078125-4.707031-3.222656-6.59375.796875-1.746094 3.105469-2.757813 6.8125-4.214844 1.902344-.746093 4.046875-1.105469 5.769531-2.160156.035157 0 .074219.007813.109375.007813 60.5625-2.636719 131.820313-4.375 201.097656 2.734374.171876.019532.34375.027344.515626.027344.25 0 .488281-.03125.726562-.066406 2.261719.773438 4.796875.652344 7.605469 2.066406 1.761719.886719 3.0625 2.355469 3.230469 3.648438.210937 1.617187-1.308594 3.753906-3.457032 4.867187-2.851562 1.476563-6.71875 1.722657-10.128906 1.945313-65.910156 4.253906-132.089844 4.382812-196.695312.386718-5.074219-.316406-9.210938-.707031-12.363282-2.648437zm207.085938 32.023437c-65.144532-4.097656-130.527344-4.195312-194.394532-.285156-2.847656-5.910156-2.996093-13.066406-.332031-19.074218 31.292969 1.925781 62.941407 2.886718 94.757813 2.886718 32.769531 0 65.710937-1.03125 98.59375-3.070312.078125.148437.136718.304687.234375.449218 3.636719 5.546876 4.019531 13.121094 1.140625 19.09375zm-210.308594 18.992188c-.855469-1.890625.675781-5.035156 3.21875-6.597656 3.15625-1.9375 7.289062-2.332032 12.367188-2.644532 31.289062-1.9375 62.933593-2.902343 94.753906-2.902343 33.878906 0 67.949218 1.097656 101.9375 3.289062 3.414062.222657 7.277344.46875 10.132812 1.945313 2.148438 1.113281 3.667969 3.25 3.453125 4.867187-.167969 1.292969-1.46875 2.761719-3.230469 3.648438-2.582031 1.296875-5.160156 2.078125-7.46875 3.234375-.078124-.011719-.148437-.039063-.226562-.050782-67.136719-7.238281-135.339844-2.863281-201.300781 1.363282-.582031.039062-1.128907.195312-1.640625.410156-.941406-.582031-1.941406-1.113281-3.011719-1.574219-2.769531-1.183593-7.585937-1.910156-8.984375-4.988281zm46.789062 40.078125c-8.84375-2.476563-19.453124-6.394531-23.0625-14.804687-.546874-1.273438-.972656-2.742188-1.421874-4.292969-.53125-1.839844-1.210938-3.589844-2.039063-5.230469 61.757813-3.949219 125.386719-7.710938 187.792969-1.609375-.335938 1.671875-.554688 3.386719-1.285156 5.027344-2.761719 6.230469-7.53125 11.804687-12.972657 15.851562-11.710937 8.710938-27.515625 10.0625-42.796875 11.367188l-1.722656.148437c-22.140625 1.90625-43.828125 3.402344-65.742188.808594-12.429687-1.46875-24.792968-3.914062-36.75-7.265625zm10.144532 42.695313c4.867187-8.246094 13.925781-11.609376 22.746094-14.078126 11.957031-3.351562 24.320312-5.792968 36.75-7.265624 21.921874-2.589844 43.605468-1.09375 65.742187.8125l1.71875.144531c15.285156 1.308593 31.089844 2.65625 42.804687 11.367187 5.578126 4.152344 10.953126 10.21875 13.421876 16.820313.515624 1.382812.914062 2.851562 1.332031 4.320312l-1.925781.082031c-44.558594 1.929688-90.636719 3.917969-135.699219 3.480469-18.992188-.1875-36.21875-.597656-53.285157-3.523437 2.273438-3.789063 3.976563-8.066406 6.394532-12.160156zm-20.820313 32.597656c-2.546875-1.5625-4.082031-4.707032-3.21875-6.597656.792969-1.746094 3.101563-2.757813 6.808594-4.210938 1.152344-.453125 2.1875-.980469 3.148437-1.554688.632813.535157 1.390626.9375 2.265626 1.105469 19.023437 3.664063 38.578124 4.144531 58.605468 4.34375 4.351563.042969 8.703125.0625 13.066406.0625 41.117188 0 82.765626-1.804687 123.164063-3.554687l7.40625-.320313c.195313-.007812.378906-.050781.566406-.082031 2.320313 1.058594 4.917969 1.257812 7.597657 2.605469 1.765624.890625 3.0625 2.355469 3.230468 3.648437.214844 1.617188-1.304687 3.753906-3.457031 4.867188-2.851563 1.476562-6.714844 1.722656-10.128906 1.945312-65.90625 4.253906-132.082031 4.382813-196.691407.386719-5.078124-.3125-9.210937-.707031-12.363281-2.644531zm207.085938 32.019531c-65.140625-4.09375-130.523438-4.195313-194.394531-.285156-2.847657-5.910157-2.996094-13.066407-.332032-19.070313 31.292969 1.921875 62.949219 2.882813 94.765625 2.882813 32.769531 0 65.707031-1.03125 98.585938-3.070313.078125.152344.140625.304688.234375.449219 3.640625 5.550781 4.019531 13.121094 1.140625 19.09375zm-210.304688 18.992187c-.859375-1.886718.671875-5.03125 3.21875-6.59375 3.15625-1.9375 7.289063-2.332031 12.363281-2.648437 28.808594-1.78125 57.921876-2.742187 87.1875-2.882813 2.523438-.011718 5.046876-.019531 7.570313-.019531 33.878906 0 67.949219 1.097657 101.9375 3.292969 3.410156.21875 7.277344.46875 10.128906 1.945312 2.152344 1.113282 3.671875 3.25 3.457031 4.867188-.167968 1.292969-1.46875 2.757812-3.230468 3.648438-3.308594 1.664062-6.4375 1.046874-9.0625 2.570312-.042969-.007812-.082032-.023438-.128906-.03125-44.546876-5.6875-90.707032-3.152344-135.34375-.695312-21.769532 1.195312-44.28125 2.433593-66.101563 2.671874-.339844.003907-.667969.042969-.984375.109376-1.300781-.757813-2.699219-1.429688-4.203125-2.019532-3.707031-1.453125-6.015625-2.464844-6.808594-4.214844zm3.105469 85.585938c.449219-1.550781.875-3.019531 1.421875-4.292969 3.605469-8.40625 14.21875-12.328125 23.058594-14.804687 11.960937-3.351563 24.324219-5.792969 36.753906-7.265625 7.878906-.929688 15.726563-1.328125 23.578125-1.375 6.953125.625 13.859375.886719 20.742188.886719 1.414062 0 2.824218-.019532 4.234374-.039063 5.707032.375 11.429688.839844 17.1875 1.335937l1.714844.148438c15.285156 1.304688 31.089844 2.652344 42.804688 11.367188 4.933594 3.667968 9.019531 8.4375 11.949218 13.835937 1.148438 2.113281 1.796876 4.414063 2.429688 6.71875-10.238281.476563-20.609375.480469-30.707031.480469l-51.21875-.015625c-.058594 0-.117188 0-.179688 0-10.8125 0-21.808593.265625-32.441406.523437-24.378906.585938-49.523437 1.183594-73.96875-1.386718 1.109375-1.863282 2-3.902344 2.640625-6.117188zm202.628906 8.386719c.046875.390625.105469.777343.15625 1.167969-1.859375-.707032-3.742187-1.160157-5.566406-1.492188-2.816406-11.949219-9.882812-22.78125-19.753906-30.125-5.160156-3.835938-10.867188-6.460938-16.8125-8.324219 12.535156-1.484375 25.421875-4.28125 36.011718-12.152343 2.433594-1.8125 4.695313-3.839844 6.769532-6.039063-1.824219 5.945313-2.367188 12.304687-2.554688 17.988281-.429687 12.933594.160156 26.046875 1.75 38.976563zm-31.132812 105.226562c-11.714844 8.710938-27.519532 10.0625-42.804688 11.367188l-1.71875.144531c-22.136718 1.90625-43.824218 3.40625-65.742187.8125-12.429688-1.472656-24.792969-3.917969-36.75-7.265625-8.839844-2.476563-19.453125-6.398437-23.0625-14.804687-.546875-1.273438-.972657-2.742188-1.417969-4.292969-.875-3.019531-2.109375-5.648438-3.710938-7.925781 53.570313-5.636719 107.898438-6.707032 161.617188-3.15625 9.664062.636718 19.082031 1.441406 27.824219 3.992187-.414063 1.957031-.585938 3.875-1.5625 5.890625-2.898438 5.976562-7.347657 11.277344-12.671875 15.238281zm28.605468-41.929687c2.152344 1.109375 3.671876 3.25 3.457032 4.867187-.167969 1.292969-1.46875 2.757813-3.230469 3.648438-3.0625 1.539062-6.085937 2.269531-8.640625 3.6875-10.640625-3.632813-21.742188-4.625-33.121094-5.375-57.160156-3.773438-115-2.390625-171.914062 4.121093-.539063.0625-1.035156.230469-1.503906.441407-.214844-.089844-.425782-.183594-.644532-.269531-3.707031-1.457032-6.015625-2.464844-6.808594-4.214844-.859374-1.890625.671876-5.03125 3.21875-6.59375 3.15625-1.9375 7.289063-2.332032 12.363282-2.648438 64.609375-3.992187 130.785156-3.863281 196.695312.390625 3.410156.21875 7.277344.46875 10.128906 1.945313zm-206.828124-31.441406c31.292968 1.921874 62.949218 2.886718 94.765624 2.886718 32.769532 0 65.707032-1.03125 98.585938-3.070312.078125.148437.140625.300781.234375.445312 3.640625 5.550782 4.023437 13.121094 1.144531 19.097656-65.144531-4.097656-130.527344-4.199218-194.398437-.289062-2.847657-5.90625-2.992188-13.066406-.332031-19.070312zm206.828124-12.351563c-2.851562 1.476563-6.71875 1.726563-10.128906 1.945313-65.910156 4.253906-132.085937 4.382812-196.691406.386718-5.078125-.3125-9.210938-.707031-12.367188-2.644531-2.542968-1.5625-4.078124-4.707031-3.21875-6.597656.796876-1.746094 3.101563-2.757813 6.808594-4.210938 1.429688-.5625 2.773438-1.214843 4.039063-1.957031.515625.273438 1.078125.472656 1.691406.550781 16.21875 2.066407 32.648437 2.65625 48.964844 2.65625 10.871093 0 21.695312-.261719 32.367187-.519531 10.574219-.253906 21.507813-.519531 32.203125-.519531h.179688l51.214843.015625c11.605469 0 23.582032-.003906 35.449219-.71875 2.660157 1.941406 6.070313 1.265625 9.714844 3.097656 1.765625.886719 3.0625 2.355469 3.230469 3.648438.214844 1.617187-1.304688 3.753906-3.457032 4.867187zm3.378907-93.921875c-2.933594 6.070312-7.378907 11.445312-12.785157 15.464844-11.714843 8.714844-27.519531 10.0625-42.804687 11.367187l-1.71875.148438c-12.140625 1.046875-24.148437 1.964843-36.136719 2.15625-8.289062-.539063-16.558594-.890625-24.859375-.851563-1.582031-.148437-3.164062-.308594-4.746093-.496094-12.425782-1.46875-24.789063-3.914062-36.75-7.261718-8.839844-2.476563-19.449219-6.398438-23.0625-14.808594-.546876-1.273438-.972657-2.738281-1.417969-4.292969-.519531-1.792969-1.183594-3.449219-1.976563-4.992187 19.417969-.414063 39.152344-1.5 58.316406-2.550782 42.945313-2.363281 87.3125-4.78125 129.835938.203126-.503906 2.027343-1 4.058593-1.894531 5.914062zm47.253906 177.371094c-11.246094-9.304688-16.3125-24.335938-21.214844-38.871094l-.550781-1.636719c-7.117188-21.050781-13.726562-41.765625-16.417969-63.664062-1.523437-12.417969-2.089843-25.007813-1.679687-37.425781.304687-9.175782 1.589844-20.414063 8.898437-25.917969 1.105469-.835938 2.433594-1.597657 3.832031-2.402344 1.972657-1.132813 3.757813-2.550781 5.339844-4.164063 12.632813 61.5625 27.808594 123.238282 45.175782 183.613282-2.832032.007812-5.878907-.820313-8.558594-1.625-5.394532-1.625-10.476563-4.3125-14.824219-7.90625zm47.53125 17.820312c-.570313 2.351563-2.285156 4.335938-3.90625 4.511719-1.289063.144531-3.03125-.769531-4.3125-2.269531-2.390625-2.800782-2.816406-5.464844-4.699219-7.675782-18.984375-65.398437-35.394531-132.386718-48.773437-199.140624-.136719-.675782-.402344-1.289063-.765625-1.824219.394531-3.179688.882812-6.421875 2.875-7.988281 1.628906-1.285157 5.046875-.542969 7.171875 1.554687 2.628906 2.605469 3.996093 6.527344 5.507812 11.382813 19.242188 61.808593 34.847657 126.121093 46.382813 191.148437.597656 3.363281 1.273437 7.175781.519531 10.300781zm27.136719-20.277344c-4.527344 4.855469-11.792969 7.027344-18.277344 5.652344-11.507812-64.246094-26.953125-127.777344-45.9375-188.894531 5.066406-4.167969 11.984375-6.011719 18.445312-4.855469 11.3125 62.632813 26.835938 125.777344 46.144532 187.765625-.125.113281-.257813.207031-.375.332031zm20.945312 12.066407c-1.519531.585937-3.953125-.375-5.546875-2.199219-2.109375-2.421875-3.273437-6.117188-4.296875-9.378906-19.800781-63.011719-35.660156-127.257813-47.136718-190.960938-.902344-5.003906-1.503907-9.113281-.371094-12.640625.84375-2.625 3.207031-4.738281 5.167968-4.738281.160157 0 .320313.015625.476563.042969 1.886719.359375 3.414063 2.359375 5.710937 5.613281 1.730469 2.453125 3.671876 4.875 5.921876 6.917969 8.296874 59.945312 21.6875 122.363281 42.113281 196.277343.121093.449219.316406.851563.542969 1.230469-.003907 3.296875 1.539062 8.246094-2.582032 9.835938zm28.378906-39.957031c-2.851562 6.757812-7.507812 12.707031-13.320312 17.171874-1.433594 1.101563-3.214844 2.132813-4.980469 3.238282-18.710937-68.40625-31.304687-126.914063-39.367187-182.9375 1.902344.015625 3.851562-.273438 6.203125-.398438 9.992187-.53125 17.253906 11.519532 21.429687 18.925782 6.097656 10.820312 11.410156 22.25 15.792969 33.96875 7.726563 20.671874 11.429687 42.09375 14.84375 64.050781l.261719 1.699219c2.367187 15.160156 4.816406 30.832031-.863282 44.28125zm0 0"/></svg>